# xmcd
#
# Track frame offsets:
#  150
#  10062
#  21430
#  31297
#  42994
#  54309
#  67328
#  78661
#  91157
#  102729
#  114498
#  124518
#  135008
#  145580
#  157686
#  169367
#  178584
#  189218
#  198592
#  208769
#  218146
#  229006
#  238501
#  251027
#  262109
#  273077
#  283662
#  295292
#  306084
#  317861
#  328424
#  338681
#
# Disc length: 4650 seconds
#
# Revision: 0
# Processed by: cddbd v1.5.2PL0 Copyright (c) Steve Scherf et al.
# Submitted via: AltoMP3_Maker 3.0
#
DISCID=d6122820
DTITLE=Various Artist - Capitol Hillbilly, Vol. 3
DYEAR=1900
DGENRE=
TTITLE0=Lee Bonds - Okee-Fi-No-Ke
TTITLE1=Gloria Henson - Rovin' Girl
TTITLE2=Jimmy Lee - Open for Trade
TTITLE3=Rod Morris - Free Wise and 21
TTITLE4=Joe Carson - Love Transfusion
TTITLE5=Ramblin' Jimmie Dolan - Playin' Dominos and Shootin' Dice
TTITLE6=Skeets McDonald - Your Love Is Like a Faucet
TTITLE7=Roy Acuff - The Night Spots
TTITLE8=Boots Woodall - I'm Gonna Start at the Top
TTITLE9=Merle Travis - A Too Fast Past
TTITLE10=Gene O'Quin - Let Me Change Your Name
TTITLE11=Tex Williams - Wild Card
TTITLE12=Hank Thompson - Whoa Sailor
TTITLE13=Rudy Gray - There's Gonna Be a Ball
TTITLE14=Billy Strange - I Gotta Be Gettin' Home
TTITLE15=Ken Marvin - I'm in Love up to My Ears
TTITLE16=The Louvin Bros. - Satan and the Saint
TTITLE17=Chester Smith - I'm Gonna Serve Him
TTITLE18=Jim and Jesse - A Memory of You
TTITLE19=Hylo Brown - Get Lost You Wolf
TTITLE20=Bob Atcher - Walk Chicken Walk
TTITLE21=Roy Hogsed - The Snake Dance Boogie
TTITLE22=Eddie Kirk - A Year of City Livin'
TTITLE23=Cousin Herb Henson - How Come Y'all Come
TTITLE24=Lee Bonds - A Double Life
TTITLE25=Boots and Idaho - I'm Sinkin' in a Hole
TTITLE26=Jimmy Work - Crazy Moon
TTITLE27=Fred Baker - I Fish with a Wish
TTITLE28=Tommy Duncan - Chattanooga Shoe Shine Boy
TTITLE29=Carl Hayes - Has Been
TTITLE30=Jean Shepard - You'll Come Crawlin'
TTITLE31=Jack Hunt - All I Do Is Sit and Cry
EXTD=
EXTT0=
EXTT1=
EXTT2=
EXTT3=
EXTT4=
EXTT5=
EXTT6=
EXTT7=
EXTT8=
EXTT9=
EXTT10=
EXTT11=
EXTT12=
EXTT13=
EXTT14=
EXTT15=
EXTT16=
EXTT17=
EXTT18=
EXTT19=
EXTT20=
EXTT21=
EXTT22=
EXTT23=
EXTT24=
EXTT25=
EXTT26=
EXTT27=
EXTT28=
EXTT29=
EXTT30=
EXTT31=
PLAYORDER=
